<?xml version="1.0" standalone="no"?>
<!DOCTYPE svg PUBLIC "-//W3C//DTD SVG 20010904//EN"
 "http://www.w3.org/TR/2001/REC-SVG-20010904/DTD/svg10.dtd">
<svg version="1.0" xmlns="http://www.w3.org/2000/svg"
 width="700.000000pt" height="700.000000pt" viewBox="0 0 700.000000 700.000000"
 preserveAspectRatio="xMidYMid meet">
<metadata>
Created by potrace 1.14, written by Peter Selinger 2001-2017
</metadata>
<g transform="translate(0.000000,700.000000) scale(0.100000,-0.100000)"
fill="#000000" stroke="none">
<path d="M540 6988 c-81 -20 -166 -52 -219 -83 -164 -96 -287 -280 -309 -461
-4 -39 -7 -1384 -7 -2990 l1 -2919 26 -76 c59 -169 170 -301 316 -377 158 -83
-154 -75 3097 -77 1596 0 2939 2 2985 7 238 21 447 193 534 437 l30 86 1 2930
c1 1612 -3 2956 -7 2988 -17 126 -104 286 -203 375 -66 59 -165 115 -254 144
l-66 21 -2945 2 c-1637 1 -2961 -2 -2980 -7z m5857 -358 c100 -13 208 -109
230 -206 7 -30 10 -994 9 -2942 l-1 -2897 -21 -46 c-31 -66 -78 -114 -142
-146 l-57 -28 -2915 0 -2915 0 -46 21 c-66 31 -114 78 -146 142 l-28 57 -1
2895 c-1 2233 1 2906 11 2942 23 92 94 167 185 198 45 15 277 17 2917 17 1577
0 2891 -3 2920 -7z"/>
<path d="M2904 5997 c-3 -10 -6 -402 -13 -1934 l-1 -131 -47 15 c-27 8 -106
32 -178 54 -71 22 -187 58 -257 80 -71 21 -188 57 -260 80 -73 22 -167 51
-208 64 -41 12 -158 48 -259 79 -101 31 -189 60 -195 65 -6 5 -69 126 -140
269 l-129 260 -251 72 c-138 40 -259 75 -269 78 -18 5 -18 -3 -12 -154 3 -87
8 -179 10 -204 2 -25 7 -110 10 -190 4 -80 8 -170 10 -200 2 -30 6 -122 10
-205 4 -82 8 -161 10 -174 3 -14 5 -57 6 -97 l2 -73 76 -25 c67 -22 389 -122
836 -261 83 -26 281 -87 440 -137 160 -49 324 -100 365 -113 41 -12 120 -37
175 -54 55 -18 105 -33 110 -34 20 -6 199 -62 495 -154 168 -52 332 -103 365
-113 33 -10 164 -50 290 -90 127 -39 289 -89 360 -111 72 -22 193 -60 270 -84
77 -24 250 -78 385 -120 135 -42 295 -91 355 -110 563 -176 570 -178 663 -177
158 1 278 76 349 219 34 68 37 83 39 169 4 139 -32 229 -127 321 -85 83 -85
83 -1029 367 -212 64 -412 125 -445 135 -33 10 -176 54 -317 96 -263 80 -262
79 -273 132 -2 10 -25 106 -50 213 -26 107 -49 204 -51 215 -8 40 -13 62 -34
150 -12 50 -24 101 -26 115 -3 14 -11 50 -19 80 -8 30 -48 204 -91 385 -100
432 -115 496 -120 521 -2 12 -20 88 -40 170 -20 82 -38 158 -40 169 -4 20 -13
62 -18 80 -1 6 -13 55 -26 110 -13 55 -25 101 -26 103 -2 4 -102 17 -199 28
-27 3 -60 7 -73 10 -12 2 -47 7 -76 10 -29 2 -64 7 -77 9 -13 3 -64 10 -114
16 -49 6 -100 12 -113 14 -13 2 -25 -2 -28 -8z"/>
<path d="M2870 2863 c-60 -9 -124 -54 -156 -109 -32 -55 -34 -153 -3 -204 56
-91 139 -127 239 -105 118 26 190 163 146 279 -22 59 -82 111 -147 130 -29 9
-53 15 -53 15 -1 -1 -12 -4 -26 -6z"/>
<path d="M3310 2710 c-147 -78 -162 -264 -28 -362 45 -34 57 -38 110 -38 133
0 218 81 218 210 0 72 -19 114 -73 163 -55 49 -162 62 -227 27z"/>
<path d="M798 1402 l-37 -3 -1 -210 -1 -209 606 0 c333 0 877 -1 1210 -1 333
0 1294 1 2135 1 l1530 0 -2 210 c-1 141 -5 210 -12 211 -28 3 -5396 4 -5428 1z"/>
</g>
</svg>
